<svg height="511pt" viewBox="0 -57 511.99957 511" width="511pt" xmlns="http://www.w3.org/2000/svg"><path d="m431.164062 91.078125v282.28125c-3.679687 7.402344-9.296874 13.441406-16.070312 17.628906-6.769531 4.191407-14.679688 6.53125-22.949219 6.53125h-359.664062c-13.960938 0-25.890625-8.53125-30.46875-20.460937-1.300781-3.378906-2.011719-7.027344-2.011719-10.839844v-335.140625c0-16.859375 14.222656-30.578125 31.710938-30.578125h121.304687c10.429687 0 20.191406 4.941406 26.101563 13.21875l33.371093 46.660156c.070313.050782.257813.121094.53125.121094h186.445313c17.480468 0 31.699218 13.71875 31.699218 30.578125zm0 0" fill="#ffda2f"/><path d="m431.164062 91.078125v282.28125c-3.679687 7.402344-9.296874 13.441406-16.070312 17.628906-6.769531 4.191407-14.679688 6.53125-22.949219 6.53125h-136.125v-337.019531h143.445313c17.480468 0 31.699218 13.71875 31.699218 30.578125zm0 0" fill="#ffb129"/><path d="m507.839844 219.371094-76.675782 153.988281c-3.679687 7.402344-9.296874 13.441406-16.070312 17.628906-6.769531 4.191407-14.679688 6.53125-22.949219 6.53125h-359.664062c-13.960938 0-25.890625-8.53125-30.46875-20.460937l88.652343-191.878906c6.890626-14.75 22.199219-24.238282 39.03125-24.238282h339.5625c15.25 0 29 7.5 36.78125 20.046875 7.25 11.722657 7.929688 26.070313 1.800782 38.382813zm0 0" fill="#ffb129"/><path d="m507.839844 219.371094-76.675782 153.988281c-3.679687 7.402344-9.296874 13.441406-16.070312 17.628906-6.769531 4.191407-14.679688 6.53125-22.949219 6.53125h-136.125v-236.578125h213.238281c15.25 0 29 7.5 36.78125 20.046875 7.25 11.722657 7.929688 26.070313 1.800782 38.382813zm0 0" fill="#ff6d40"/></svg>